
<svg xmlns="http://www.w3.org/2000/svg" viewBox="0 0 26 26">
    <defs><path id="stop-path66" d="M19.833 0H3.5C1.517 0 0 1.517 0 3.5v16.333c0 1.984 1.517 3.5 3.5 3.5h16.333c1.984 0 3.5-1.516 3.5-3.5V3.5c0-1.983-1.516-3.5-3.5-3.5zM21 19.833c0 .7-.467 1.167-1.167 1.167H3.5c-.7 0-1.167-.467-1.167-1.167V3.5c0-.7.467-1.167 1.167-1.167h16.333c.7 0 1.167.467 1.167 1.167v16.333z"></path></defs>
    <g fill="none" fill-rule="evenodd" transform="translate(1.4 1.4)">
        <!-- <mask id="stop-mask66" fill="#fff"><use href="#stop-path66"></use></mask> -->
        <g fill="#FF4F5E" mask="url(#stop-mask66)"><path d="M-2.333-2.333h28v28h-28z"></path></g>
    </g>
</svg>